# xmcd
#
# Track frame offsets:
#	150
#	17217
#	29582
#	44874
#	57200
#	70405
#	89198
#	103528
#	118377
#	137946
#	150056
#	162023
#	171686
#	183982
#	200069
#	213014
#	229460
#	244828
#	262169
#	273599
#	284436
#
# Disc length: 3975 seconds
#
# Revision: 0
# Processed by: cddbd v1.4PL0 Copyright (c) Steve Scherf et al.
# Submitted via: EasyCDDAExtractor 4.6.9.1
#
DISCID=510f8515
DTITLE=Various Artist - Country Legends [CD 2)
DYEAR=1900
DGENRE=Country
TTITLE0=A Boy Named Sue
TTITLE1=9 To 5
TTITLE2=Achy Breaky Heart
TTITLE3=What I've Got In Mind
TTITLE4=When You're In Love With A Beautiful Woman
TTITLE5=Islands In The Stream
TTITLE6=Rhinestone Cowboy
TTITLE7=Take Me Home Country Roads
TTITLE8=Coward Of The County
TTITLE9=The Most Beautiful Girl
TTITLE10=Stand By Your Man
TTITLE11=From A Jack To A King
TTITLE12=I Walk The Line
TTITLE13=Blanket On The Ground
TTITLE14=I'll Never Fall In Love Again
TTITLE15=Lucille
TTITLE16=Crazy
TTITLE17=We've Got Tonight
TTITLE18=Don't It Make My Brown Eyes Blue
TTITLE19=He'll Have To Go
TTITLE20=Funny How Time Slips Away
EXTD=
EXTT0=
EXTT1=
EXTT2=
EXTT3=
EXTT4=
EXTT5=
EXTT6=
EXTT7=
EXTT8=
EXTT9=
EXTT10=
EXTT11=
EXTT12=
EXTT13=
EXTT14=
EXTT15=
EXTT16=
EXTT17=
EXTT18=
EXTT19=
EXTT20=
PLAYORDER=
